<svg width="92" height="92" viewBox="0 0 92 92" fill="none" xmlns="http://www.w3.org/2000/svg">
<g filter="url(#filter0_d_22_1151)">
<path fill-rule="evenodd" clip-rule="evenodd" d="M46 79.5C66.7105 79.5 83.5 62.7104 83.5 42C83.5 21.2896 66.7105 4.49998 46 4.49998C25.2896 4.49998 8.50004 21.2896 8.50004 42C8.50004 62.7104 25.2896 79.5 46 79.5ZM46 83.6666C69.0125 83.6666 87.6667 65.0125 87.6667 42C87.6667 18.9875 69.0125 0.333313 46 0.333313C22.9875 0.333313 4.33337 18.9875 4.33337 42C4.33337 65.0125 22.9875 83.6666 46 83.6666Z" fill="black"/>
<path d="M21 66.2291C21 64.077 22.6083 62.2583 24.75 62.0208C40.8229 60.2416 51.25 60.402 67.2875 62.0604C68.0884 62.1445 68.8474 62.46 69.4719 62.9683C70.0964 63.4767 70.5593 64.156 70.8041 64.9231C71.0489 65.6903 71.065 66.5121 70.8505 67.2882C70.6359 68.0644 70.1999 68.7613 69.5958 69.2937C50.6687 85.7916 39.8521 85.5645 22.3333 69.3104C21.4792 68.5187 21 67.3916 21 66.2291Z" fill="black"/>
<path fill-rule="evenodd" clip-rule="evenodd" d="M67.073 64.1312C51.1626 62.4854 40.8855 62.3312 24.9772 64.0916C24.4535 64.1527 23.9708 64.4047 23.6213 64.7995C23.2719 65.1942 23.0804 65.704 23.0834 66.2312C23.0834 66.8271 23.3313 67.3916 23.7501 67.7833C32.4334 75.8375 39.0126 79.4771 45.4438 79.5C51.898 79.5229 58.8313 75.9125 68.2272 67.725C68.5257 67.4593 68.7406 67.1126 68.8457 66.7271C68.9509 66.3416 68.9418 65.9338 68.8195 65.5533C68.6973 65.1729 68.4671 64.8362 68.1571 64.5841C67.847 64.332 67.4704 64.1733 67.073 64.1312ZM24.5209 59.95C40.7626 58.1521 51.3418 58.3145 67.5043 59.9875C68.7091 60.1132 69.8511 60.5875 70.7904 61.3523C71.7298 62.1171 72.4258 63.1392 72.7933 64.2935C73.1607 65.4477 73.1836 66.6841 72.8592 67.8512C72.5348 69.0183 71.8772 70.0655 70.9668 70.8646C61.4355 79.1729 53.498 83.6979 45.4313 83.6666C37.3418 83.6375 29.7543 79.0354 20.9188 70.8375C20.2862 70.2482 19.782 69.5349 19.4375 68.742C19.093 67.9491 18.9157 67.0936 18.9168 66.2291C18.9137 64.6759 19.4839 63.1761 20.5179 62.0171C21.552 60.858 22.9774 60.1234 24.5209 59.95Z" fill="black"/>
<path d="M62.6667 33.6667C62.6667 38.0869 60.9108 42.3262 57.7852 45.4518C54.6595 48.5774 50.4203 50.3333 46 50.3333C41.5798 50.3333 37.3405 48.5774 34.2149 45.4518C31.0893 42.3262 29.3334 38.0869 29.3334 33.6667C29.3334 29.2464 31.0893 25.0072 34.2149 21.8816C37.3405 18.7559 41.5798 17 46 17C50.4203 17 54.6595 18.7559 57.7852 21.8816C60.9108 25.0072 62.6667 29.2464 62.6667 33.6667Z" fill="black"/>
<path fill-rule="evenodd" clip-rule="evenodd" d="M46 46.1667C49.3152 46.1667 52.4947 44.8497 54.8389 42.5055C57.1831 40.1613 58.5 36.9819 58.5 33.6667C58.5 30.3515 57.1831 27.172 54.8389 24.8278C52.4947 22.4836 49.3152 21.1667 46 21.1667C42.6848 21.1667 39.5054 22.4836 37.1612 24.8278C34.817 27.172 33.5 30.3515 33.5 33.6667C33.5 36.9819 34.817 40.1613 37.1612 42.5055C39.5054 44.8497 42.6848 46.1667 46 46.1667ZM46 50.3333C50.4203 50.3333 54.6595 48.5774 57.7852 45.4518C60.9108 42.3262 62.6667 38.0869 62.6667 33.6667C62.6667 29.2464 60.9108 25.0072 57.7852 21.8816C54.6595 18.7559 50.4203 17 46 17C41.5798 17 37.3405 18.7559 34.2149 21.8816C31.0893 25.0072 29.3334 29.2464 29.3334 33.6667C29.3334 38.0869 31.0893 42.3262 34.2149 45.4518C37.3405 48.5774 41.5798 50.3333 46 50.3333Z" fill="black"/>
</g>
<defs>
<filter id="filter0_d_22_1151" x="0.333374" y="0.333313" width="91.3334" height="91.3335" filterUnits="userSpaceOnUse" color-interpolation-filters="sRGB">
<feFlood flood-opacity="0" result="BackgroundImageFix"/>
<feColorMatrix in="SourceAlpha" type="matrix" values="0 0 0 0 0 0 0 0 0 0 0 0 0 0 0 0 0 0 127 0" result="hardAlpha"/>
<feOffset dy="4"/>
<feGaussianBlur stdDeviation="2"/>
<feComposite in2="hardAlpha" operator="out"/>
<feColorMatrix type="matrix" values="0 0 0 0 0 0 0 0 0 0 0 0 0 0 0 0 0 0 0.25 0"/>
<feBlend mode="normal" in2="BackgroundImageFix" result="effect1_dropShadow_22_1151"/>
<feBlend mode="normal" in="SourceGraphic" in2="effect1_dropShadow_22_1151" result="shape"/>
</filter>
</defs>
</svg>
