<svg width="12" height="15" viewBox="0 0 12 15" fill="none" xmlns="http://www.w3.org/2000/svg">
<path d="M10 5.33335H11.3333C11.5101 5.33335 11.6797 5.40359 11.8047 5.52862C11.9298 5.65364 12 5.82321 12 6.00002V14C12 14.1768 11.9298 14.3464 11.8047 14.4714C11.6797 14.5965 11.5101 14.6667 11.3333 14.6667H0.666667C0.489856 14.6667 0.320286 14.5965 0.195262 14.4714C0.0702379 14.3464 0 14.1768 0 14V6.00002C0 5.82321 0.0702379 5.65364 0.195262 5.52862C0.320286 5.40359 0.489856 5.33335 0.666667 5.33335H2V4.66669C2 3.60582 2.42143 2.58841 3.17157 1.83826C3.92172 1.08811 4.93913 0.666687 6 0.666687C7.06087 0.666687 8.07828 1.08811 8.82843 1.83826C9.57857 2.58841 10 3.60582 10 4.66669V5.33335ZM8.66667 5.33335V4.66669C8.66667 3.95944 8.38572 3.28117 7.88562 2.78107C7.38552 2.28097 6.70724 2.00002 6 2.00002C5.29276 2.00002 4.61448 2.28097 4.11438 2.78107C3.61428 3.28117 3.33333 3.95944 3.33333 4.66669V5.33335H8.66667ZM2.66667 7.33335V8.66669H4V7.33335H2.66667ZM2.66667 9.33335V10.6667H4V9.33335H2.66667ZM2.66667 11.3334V12.6667H4V11.3334H2.66667Z" fill="#333333"/>
</svg>
